<svg id="route-icon" class="ionicon s-ion-icon" viewBox="0 0 512 512"><path d="M418.133 490.667H409.6c-4.719 0-8.533 3.814-8.533 8.533s3.814 8.533 8.533 8.533h8.533c4.719 0 8.533-3.814 8.533-8.533s-3.814-8.533-8.533-8.533zM327.992 490.667h-16.316c-4.719 0-8.533 3.814-8.533 8.533s3.814 8.533 8.533 8.533h16.316c4.719 0 8.533-3.814 8.533-8.533s-3.815-8.533-8.533-8.533zM376.958 490.667h-16.324c-4.719 0-8.533 3.814-8.533 8.533s3.814 8.533 8.533 8.533h16.324c4.719 0 8.533-3.814 8.533-8.533s-3.814-8.533-8.533-8.533zM226.044 344.477a34.353 34.353 0 0 1 8.448 9.865 8.546 8.546 0 0 0 7.424 4.309 8.47 8.47 0 0 0 4.215-1.118c4.096-2.338 5.53-7.552 3.191-11.639a51.53 51.53 0 0 0-12.646-14.771c-3.712-2.935-9.071-2.321-11.989 1.357-2.936 3.694-2.33 9.062 1.357 11.997zM40.523 484.767a34.271 34.271 0 0 1-9.156-9.233c-2.637-3.908-7.936-4.975-11.844-2.321-3.917 2.628-4.949 7.927-2.321 11.836a51.228 51.228 0 0 0 13.688 13.798 8.447 8.447 0 0 0 4.813 1.493 8.513 8.513 0 0 0 7.049-3.712c2.661-3.891 1.662-9.199-2.229-11.861zM83.167 490.667H66.842c-4.719 0-8.533 3.814-8.533 8.533s3.814 8.533 8.533 8.533h16.324c4.719 0 8.533-3.814 8.533-8.533s-3.813-8.533-8.532-8.533zM17.717 457.667a8.535 8.535 0 0 0 8.397-7.066 33.632 33.632 0 0 1 4.634-12.1 8.537 8.537 0 0 0-2.722-11.759c-3.977-2.483-9.259-1.263-11.759 2.722-3.482 5.589-5.837 11.708-6.963 18.202a8.532 8.532 0 0 0 8.413 10.001zM175.975 328.533a8.525 8.525 0 0 0 8.533 8.533h16.316c4.719 0 8.533-3.814 8.533-8.533S205.543 320 200.824 320h-16.316a8.526 8.526 0 0 0-8.533 8.533zM122.908 413.867a8.525 8.525 0 0 0-8.533-8.533H98.059a8.525 8.525 0 0 0-8.533 8.533 8.525 8.525 0 0 0 8.533 8.533h16.316a8.525 8.525 0 0 0 8.533-8.533zM135.542 320c-4.719 0-8.533 3.814-8.533 8.533s3.814 8.533 8.533 8.533h16.324c4.719 0 8.533-3.814 8.533-8.533S156.585 320 151.866 320h-16.324zM65.408 422.4a8.525 8.525 0 0 0 8.533-8.533 8.525 8.525 0 0 0-8.533-8.533h-5.692a51.99 51.99 0 0 0-12.612 1.57c-4.565 1.152-7.33 5.786-6.178 10.359.973 3.874 4.446 6.443 8.269 6.443.691 0 1.399-.077 2.099-.256a34.83 34.83 0 0 1 8.439-1.05h5.675zM230.059 490.667h-16.316c-4.719 0-8.533 3.814-8.533 8.533s3.814 8.533 8.533 8.533h16.316c4.719 0 8.533-3.814 8.533-8.533s-3.814-8.533-8.533-8.533zM248.275 373.4c-4.565-1.169-9.207 1.604-10.368 6.187a33.944 33.944 0 0 1-5.513 11.733c-2.782 3.797-1.954 9.139 1.852 11.921a8.483 8.483 0 0 0 5.026 1.638c2.637 0 5.231-1.203 6.904-3.499a51.001 51.001 0 0 0 8.286-17.613c1.143-4.564-1.613-9.207-6.187-10.367zM279.025 490.667H262.7c-4.719 0-8.533 3.814-8.533 8.533s3.814 8.533 8.533 8.533h16.324c4.719 0 8.533-3.814 8.533-8.533s-3.813-8.533-8.532-8.533zM171.875 413.867a8.525 8.525 0 0 0-8.533-8.533h-16.324a8.525 8.525 0 0 0-8.533 8.533 8.525 8.525 0 0 0 8.533 8.533h16.324a8.525 8.525 0 0 0 8.533-8.533zM132.125 490.667h-16.316c-4.719 0-8.533 3.814-8.533 8.533s3.814 8.533 8.533 8.533h16.316c4.719 0 8.533-3.814 8.533-8.533s-3.814-8.533-8.533-8.533zM181.092 490.667h-16.316c-4.719 0-8.533 3.814-8.533 8.533s3.814 8.533 8.533 8.533h16.316c4.719 0 8.533-3.814 8.533-8.533s-3.814-8.533-8.533-8.533zM220.675 411.742c-.828-4.634-5.171-7.723-9.882-6.929-1.98.35-3.994.521-5.99.521h-8.823a8.53 8.53 0 0 0-8.533 8.533 8.53 8.53 0 0 0 8.533 8.533h8.823c2.978 0 5.99-.256 8.943-.777 4.634-.819 7.74-5.239 6.929-9.881zM93.867 320c-4.719 0-8.533 3.814-8.533 8.533s3.814 8.533 8.533 8.533h8.533c4.719 0 8.533-3.814 8.533-8.533S107.119 320 102.4 320h-8.533zM93.867 132.267c18.825 0 34.133-15.309 34.133-34.133C128 79.309 112.691 64 93.867 64c-18.825 0-34.133 15.309-34.133 34.133-.001 18.825 15.308 34.134 34.133 34.134z"/><path d="M86.699 299.563a8.53 8.53 0 0 0 7.168 3.9 8.527 8.527 0 0 0 7.168-3.9c.393-.606 39.68-61.525 65.647-117.547 13.124-28.314 21.052-45.406 21.052-76.425 0-49.809-35.106-101.325-93.867-101.325C35.106 4.267 0 55.782 0 105.591c0 31.019 7.927 48.111 21.052 76.425 25.967 56.021 65.254 116.941 65.647 117.547zm7.168-252.63c28.237 0 51.2 22.963 51.2 51.2 0 28.237-22.963 51.2-51.2 51.2-28.237 0-51.2-22.963-51.2-51.2 0-28.236 22.963-51.2 51.2-51.2zM418.133 234.667c-18.825 0-34.133 15.309-34.133 34.133s15.309 34.133 34.133 34.133 34.133-15.309 34.133-34.133-15.308-34.133-34.133-34.133z"/><path d="M418.133 174.933c-58.761 0-93.867 51.516-93.867 101.325 0 31.019 7.927 48.111 21.052 76.425 25.967 56.021 65.254 116.941 65.647 117.547 1.579 2.441 4.275 3.9 7.168 3.9s5.589-1.459 7.168-3.9c.393-.606 39.68-61.525 65.647-117.547C504.073 324.369 512 307.277 512 276.258c0-49.809-35.106-101.325-93.867-101.325zm0 145.067c-28.237 0-51.2-22.963-51.2-51.2s22.963-51.2 51.2-51.2c28.237 0 51.2 22.963 51.2 51.2s-22.963 51.2-51.2 51.2z"/></svg>